<?xml version="1.0" encoding="UTF-8" standalone="no"?><!-- Generator: Gravit.io --><svg xmlns="http://www.w3.org/2000/svg" xmlns:xlink="http://www.w3.org/1999/xlink" style="isolation:isolate" viewBox="0 0 1440 900" width="1440pt" height="900pt"><defs><clipPath id="_clipPath_yggXpaCDtOeHo1Y0VcXtMiLe8fthelTk"><rect width="1440" height="900"/></clipPath></defs><g clip-path="url(#_clipPath_yggXpaCDtOeHo1Y0VcXtMiLe8fthelTk)"><g><line x1="1112.499" y1="870.676" x2="1112.499" y2="612.521" vector-effect="non-scaling-stroke" stroke-width="4" stroke="rgb(255,255,255)" stroke-linejoin="miter" stroke-linecap="square" stroke-miterlimit="3"/><path d=" M 1112.499 566.757 L 1112.499 124.372 L 1087.857 124.372 L 1087.857 29.324 L 1239.23 29.324 L 1239.23 185.39 L 1288.514 185.39" fill="none" vector-effect="non-scaling-stroke" stroke-width="4" stroke="rgb(255,255,255)" stroke-linejoin="miter" stroke-linecap="square" stroke-miterlimit="3"/><path d=" M 1327.238 185.39 L 1335.452 185.39 L 1335.452 234.675 L 1239.23 234.675 L 1239.23 540.941" fill="none" vector-effect="non-scaling-stroke" stroke-width="4" stroke="rgb(255,255,255)" stroke-linejoin="miter" stroke-linecap="square" stroke-miterlimit="3"/><line x1="1112.499" y1="816.698" x2="1131.274" y2="816.698" vector-effect="non-scaling-stroke" stroke-width="4" stroke="rgb(255,255,255)" stroke-linejoin="miter" stroke-linecap="square" stroke-miterlimit="3"/><line x1="1239.23" y1="816.698" x2="1222.802" y2="816.698" vector-effect="non-scaling-stroke" stroke-width="4" stroke="rgb(255,255,255)" stroke-linejoin="miter" stroke-linecap="square" stroke-miterlimit="3"/><line x1="1173.518" y1="816.698" x2="1180.558" y2="816.698" vector-effect="non-scaling-stroke" stroke-width="4" stroke="rgb(255,255,255)" stroke-linejoin="miter" stroke-linecap="square" stroke-miterlimit="3"/><line x1="1112.499" y1="725.171" x2="1131.274" y2="725.171" vector-effect="non-scaling-stroke" stroke-width="4" stroke="rgb(255,255,255)" stroke-linejoin="miter" stroke-linecap="square" stroke-miterlimit="3"/><line x1="1173.518" y1="725.171" x2="1180.558" y2="725.171" vector-effect="non-scaling-stroke" stroke-width="4" stroke="rgb(255,255,255)" stroke-linejoin="miter" stroke-linecap="square" stroke-miterlimit="3"/><line x1="1222.802" y1="725.171" x2="1239.23" y2="725.171" vector-effect="non-scaling-stroke" stroke-width="4" stroke="rgb(255,255,255)" stroke-linejoin="miter" stroke-linecap="square" stroke-miterlimit="3"/><path d=" M 1112.499 124.372 L 1158.263 124.372 L 1158.263 29.324" fill="none" vector-effect="non-scaling-stroke" stroke-width="4" stroke="rgb(255,255,255)" stroke-linejoin="miter" stroke-linecap="square" stroke-miterlimit="3"/><g><line x1="1171.171" y1="440.026" x2="1169.998" y2="298.04" vector-effect="non-scaling-stroke" stroke-width="4" stroke="rgb(255,255,255)" stroke-linejoin="miter" stroke-linecap="square" stroke-miterlimit="3"/><line x1="1167.651" y1="320.335" x2="1112.499" y2="320.335" vector-effect="non-scaling-stroke" stroke-width="1" stroke="rgb(255,255,255)" stroke-linejoin="miter" stroke-linecap="square" stroke-miterlimit="3"/><line x1="1169.998" y1="332.07" x2="1112.499" y2="332.07" vector-effect="non-scaling-stroke" stroke-width="1" stroke="rgb(255,255,255)" stroke-linejoin="miter" stroke-linecap="square" stroke-miterlimit="3"/><line x1="1168.237" y1="298.04" x2="1113.086" y2="298.04" vector-effect="non-scaling-stroke" stroke-width="1" stroke="rgb(255,255,255)" stroke-linejoin="miter" stroke-linecap="square" stroke-miterlimit="3"/><line x1="1170.584" y1="309.775" x2="1113.086" y2="309.775" vector-effect="non-scaling-stroke" stroke-width="1" stroke="rgb(255,255,255)" stroke-linejoin="miter" stroke-linecap="square" stroke-miterlimit="3"/><line x1="1167.651" y1="363.753" x2="1112.499" y2="363.753" vector-effect="non-scaling-stroke" stroke-width="1" stroke="rgb(255,255,255)" stroke-linejoin="miter" stroke-linecap="square" stroke-miterlimit="3"/><line x1="1169.998" y1="375.487" x2="1112.499" y2="375.487" vector-effect="non-scaling-stroke" stroke-width="1" stroke="rgb(255,255,255)" stroke-linejoin="miter" stroke-linecap="square" stroke-miterlimit="3"/><line x1="1168.237" y1="341.457" x2="1113.086" y2="341.457" vector-effect="non-scaling-stroke" stroke-width="1" stroke="rgb(255,255,255)" stroke-linejoin="miter" stroke-linecap="square" stroke-miterlimit="3"/><line x1="1170.584" y1="353.192" x2="1113.086" y2="353.192" vector-effect="non-scaling-stroke" stroke-width="1" stroke="rgb(255,255,255)" stroke-linejoin="miter" stroke-linecap="square" stroke-miterlimit="3"/><line x1="1167.651" y1="407.17" x2="1112.499" y2="407.17" vector-effect="non-scaling-stroke" stroke-width="1" stroke="rgb(255,255,255)" stroke-linejoin="miter" stroke-linecap="square" stroke-miterlimit="3"/><line x1="1169.998" y1="418.904" x2="1112.499" y2="418.904" vector-effect="non-scaling-stroke" stroke-width="1" stroke="rgb(255,255,255)" stroke-linejoin="miter" stroke-linecap="square" stroke-miterlimit="3"/><line x1="1168.237" y1="384.874" x2="1113.086" y2="384.874" vector-effect="non-scaling-stroke" stroke-width="1" stroke="rgb(255,255,255)" stroke-linejoin="miter" stroke-linecap="square" stroke-miterlimit="3"/><line x1="1170.584" y1="396.609" x2="1113.086" y2="396.609" vector-effect="non-scaling-stroke" stroke-width="1" stroke="rgb(255,255,255)" stroke-linejoin="miter" stroke-linecap="square" stroke-miterlimit="3"/><line x1="1168.237" y1="428.291" x2="1113.086" y2="428.291" vector-effect="non-scaling-stroke" stroke-width="1" stroke="rgb(255,255,255)" stroke-linejoin="miter" stroke-linecap="square" stroke-miterlimit="3"/><line x1="1170.584" y1="440.026" x2="1113.086" y2="440.026" vector-effect="non-scaling-stroke" stroke-width="1" stroke="rgb(255,255,255)" stroke-linejoin="miter" stroke-linecap="square" stroke-miterlimit="3"/><path d=" M 1113.086 449.413 L 1172.344 449.413 Q 1183.023 448.856 1184.079 440.026 C 1185.135 431.196 1177.449 428.027 1172.344 427.118" fill="none" vector-effect="non-scaling-stroke" stroke-width="1" stroke="rgb(255,255,255)" stroke-linejoin="miter" stroke-linecap="square" stroke-miterlimit="3"/></g><line x1="1335.452" y1="234.675" x2="1335.452" y2="870.676" vector-effect="non-scaling-stroke" stroke-width="4" stroke="rgb(255,255,255)" stroke-linejoin="miter" stroke-linecap="square" stroke-miterlimit="3"/><path d=" M 1335.452 870.676 L 1239.23 870.676 L 1239.23 586.705" fill="none" vector-effect="non-scaling-stroke" stroke-width="4" stroke="rgb(255,255,255)" stroke-linejoin="miter" stroke-linecap="square" stroke-miterlimit="3"/><line x1="1335.452" y1="470.535" x2="1239.23" y2="470.535" vector-effect="non-scaling-stroke" stroke-width="4" stroke="rgb(255,255,255)" stroke-linejoin="miter" stroke-linecap="square" stroke-miterlimit="3"/><path d=" M 1335.452 185.39 L 1335.452 96.209 L 1239.23 96.209" fill="none" vector-effect="non-scaling-stroke" stroke-width="4" stroke="rgb(255,255,255)" stroke-linejoin="miter" stroke-linecap="square" stroke-miterlimit="3"/><path d=" M 1112.499 870.676 L 925.923 870.676 L 925.923 809.658 L 983.421 809.658 L 983.421 870.676" fill="none" vector-effect="non-scaling-stroke" stroke-width="4" stroke="rgb(255,255,255)" stroke-linejoin="miter" stroke-linecap="square" stroke-miterlimit="3"/><line x1="925.923" y1="809.658" x2="918.882" y2="809.658" vector-effect="non-scaling-stroke" stroke-width="4" stroke="rgb(255,255,255)" stroke-linejoin="miter" stroke-linecap="square" stroke-miterlimit="3"/><path d=" M 873.118 809.658 L 737 809.658 L 737 631.296 L 863.731 631.296 L 863.731 529.207" fill="none" vector-effect="non-scaling-stroke" stroke-width="4" stroke="rgb(255,255,255)" stroke-linejoin="miter" stroke-linecap="square" stroke-miterlimit="3"/><path d=" M 737 631.296 L 737 134.933 L 918.882 134.933 L 918.882 326.203 L 918.882 546.808 L 950.565 546.808 L 950.565 481.096 L 1112.499 481.096" fill="none" vector-effect="non-scaling-stroke" stroke-width="4" stroke="rgb(255,255,255)" stroke-linejoin="miter" stroke-linecap="square" stroke-miterlimit="3"/><path d=" M 863.731 481.096 L 863.731 326.203 L 737 326.203" fill="none" vector-effect="non-scaling-stroke" stroke-width="4" stroke="rgb(255,255,255)" stroke-linejoin="miter" stroke-linecap="square" stroke-miterlimit="3"/><line x1="863.731" y1="326.203" x2="876.639" y2="326.203" vector-effect="non-scaling-stroke" stroke-width="4" stroke="rgb(255,255,255)" stroke-linejoin="miter" stroke-linecap="square" stroke-miterlimit="3"/><line x1="918.882" y1="326.203" x2="907.148" y2="326.203" vector-effect="non-scaling-stroke" stroke-width="4" stroke="rgb(255,255,255)" stroke-linejoin="miter" stroke-linecap="square" stroke-miterlimit="3"/><line x1="863.731" y1="481.096" x2="737" y2="481.096" vector-effect="non-scaling-stroke" stroke-width="4" stroke="rgb(255,255,255)" stroke-linejoin="miter" stroke-linecap="square" stroke-miterlimit="3"/><path d=" M 836.742 809.658 L 836.742 857.769 L 847.303 857.769" fill="none" vector-effect="non-scaling-stroke" stroke-width="4" stroke="rgb(255,255,255)" stroke-linejoin="miter" stroke-linecap="square" stroke-miterlimit="3"/><line x1="925.923" y1="857.769" x2="891.893" y2="857.769" vector-effect="non-scaling-stroke" stroke-width="4" stroke="rgb(255,255,255)" stroke-linejoin="miter" stroke-linecap="square" stroke-miterlimit="3"/><line x1="918.882" y1="326.203" x2="1112.499" y2="326.203" vector-effect="non-scaling-stroke" stroke-width="4" stroke="rgb(255,255,255)" stroke-linejoin="miter" stroke-linecap="square" stroke-miterlimit="3"/><line x1="918.882" y1="140.8" x2="1112.499" y2="140.8" vector-effect="non-scaling-stroke" stroke-width="4" stroke="rgb(255,255,255)" stroke-linejoin="miter" stroke-linecap="square" stroke-miterlimit="3"/><rect x="1106.632" y="206.512" width="14.081" height="36.376" transform="matrix(1,0,0,1,0,0)" fill="rgb(166,104,46)"/><g clip-path="url(#_clipPath_ycHJAIInXSQ0ko6LpnlIOHLo3LkNH8wH)"><text transform="matrix(1.173,0,0,1.173,965.233,253.994)" style="font-family:'Montserrat';font-weight:700;font-size:48px;font-style:normal;fill:#ffffff;stroke:none;">100</text></g><defs><clipPath id="_clipPath_ycHJAIInXSQ0ko6LpnlIOHLo3LkNH8wH"><rect x="0" y="0" width="90" height="60" transform="matrix(1.173,0,0,1.173,962.886,199.472)"/></clipPath></defs><g clip-path="url(#_clipPath_nN2hvzvw6lpbpOuK2AtJhQ18m58Q8U0k)"><text transform="matrix(1.173,0,0,1.173,781.797,253.994)" style="font-family:'Montserrat';font-weight:700;font-size:48px;font-style:normal;fill:#ffffff;stroke:none;">101</text></g><defs><clipPath id="_clipPath_nN2hvzvw6lpbpOuK2AtJhQ18m58Q8U0k"><rect x="0" y="0" width="90" height="60" transform="matrix(1.173,0,0,1.173,771.03,199.472)"/></clipPath></defs><line x1="863.731" y1="528.033" x2="863.731" y2="481.096" vector-effect="non-scaling-stroke" stroke-width="4" stroke="rgb(255,255,255)" stroke-linejoin="miter" stroke-linecap="square" stroke-miterlimit="3"/><g><circle vector-effect="non-scaling-stroke" cx="1288.5144802690952" cy="139.62642546558374" r="31.68274673886299" fill="rgb(39,59,122)"/><path d=" M 1320.197 139.626 C 1320.197 138.606 1320.147 137.597 1320.053 136.602 L 1307.289 123.838 L 1295.159 144.422 L 1298.923 148.186 L 1269.74 156.695 L 1284.038 170.993 C 1285.501 171.2 1286.995 171.309 1288.514 171.309 C 1306.012 171.309 1320.197 157.124 1320.197 139.626 Z " fill="rgb(18,17,73)"/><rect x="1269.739" y="123.838" width="21.905" height="32.856" transform="matrix(1,0,0,1,0,0)" fill="rgb(255,237,181)"/><rect x="1288.514" y="123.838" width="18.775" height="32.856" transform="matrix(1,0,0,1,0,0)" fill="rgb(254,225,135)"/><g><path d=" M 1279.127 132.169 C 1277.122 132.169 1275.49 130.537 1275.49 128.532 C 1275.49 126.527 1277.122 124.896 1279.127 124.896 C 1281.132 124.896 1282.764 126.527 1282.764 128.532 C 1282.764 130.537 1281.132 132.169 1279.127 132.169 Z  M 1279.127 125.91 C 1277.681 125.91 1276.505 127.086 1276.505 128.532 C 1276.505 129.978 1277.681 131.154 1279.127 131.154 C 1280.573 131.154 1281.749 129.978 1281.749 128.532 C 1281.749 127.086 1280.573 125.91 1279.127 125.91 Z " fill="rgb(181,67,36)"/><path d=" M 1297.902 132.169 C 1295.897 132.169 1294.265 130.537 1294.265 128.532 C 1294.265 126.527 1295.897 124.896 1297.902 124.896 C 1299.907 124.896 1301.539 126.527 1301.539 128.532 C 1301.539 130.537 1299.907 132.169 1297.902 132.169 Z  M 1297.902 125.91 C 1296.456 125.91 1295.28 127.086 1295.28 128.532 C 1295.28 129.978 1296.456 131.154 1297.902 131.154 C 1299.348 131.154 1300.524 129.978 1300.524 128.532 C 1300.524 127.086 1299.348 125.91 1297.902 125.91 Z " fill="rgb(181,67,36)"/><path d=" M 1285.385 143.31 C 1285.105 143.31 1284.878 143.083 1284.878 142.803 L 1284.878 135.581 C 1284.878 134.667 1284.134 133.923 1283.22 133.923 L 1275.034 133.923 C 1274.12 133.923 1273.376 134.667 1273.376 135.581 L 1273.376 142.803 C 1273.376 143.083 1273.149 143.31 1272.869 143.31 C 1272.589 143.31 1272.361 143.083 1272.361 142.803 L 1272.361 135.581 C 1272.361 134.107 1273.56 132.908 1275.034 132.908 L 1283.22 132.908 C 1284.694 132.908 1285.893 134.107 1285.893 135.581 L 1285.893 142.803 C 1285.893 143.083 1285.666 143.31 1285.385 143.31 Z " fill="rgb(181,67,36)"/><path d=" M 1282.256 154.073 C 1281.976 154.073 1281.749 153.845 1281.749 153.565 L 1281.749 137.92 C 1281.749 137.639 1281.976 137.412 1282.256 137.412 C 1282.536 137.412 1282.764 137.64 1282.764 137.92 L 1282.764 153.565 C 1282.764 153.846 1282.537 154.073 1282.256 154.073 Z " fill="rgb(181,67,36)"/><path d=" M 1275.998 154.073 C 1275.717 154.073 1275.491 153.845 1275.491 153.565 L 1275.491 137.92 C 1275.491 137.639 1275.718 137.412 1275.998 137.412 C 1276.278 137.412 1276.505 137.64 1276.505 137.92 L 1276.505 153.565 C 1276.505 153.846 1276.278 154.073 1275.998 154.073 Z " fill="rgb(181,67,36)"/><path d=" M 1299.893 154.073 C 1299.613 154.073 1299.386 153.845 1299.386 153.565 L 1299.386 144.178 C 1299.386 143.898 1299.613 143.671 1299.893 143.671 C 1300.173 143.671 1300.4 143.898 1300.4 144.178 L 1300.4 153.565 C 1300.401 153.846 1300.173 154.073 1299.893 154.073 Z " fill="rgb(181,67,36)"/><path d=" M 1295.911 154.073 C 1295.63 154.073 1295.403 153.845 1295.403 153.565 L 1295.403 144.178 C 1295.403 143.898 1295.631 143.671 1295.911 143.671 C 1296.191 143.671 1296.418 143.898 1296.418 144.178 L 1296.418 153.565 C 1296.418 153.846 1296.191 154.073 1295.911 154.073 Z " fill="rgb(181,67,36)"/><path d=" M 1304.161 146.392 C 1303.975 146.392 1303.795 146.289 1303.706 146.111 L 1300.577 139.853 C 1300.542 139.782 1300.524 139.705 1300.524 139.626 L 1300.524 134.759 C 1300.524 134.271 1300.128 133.875 1299.64 133.875 L 1296.164 133.875 C 1295.676 133.875 1295.28 134.271 1295.28 134.759 L 1295.28 139.626 C 1295.28 139.705 1295.262 139.783 1295.226 139.853 L 1292.097 146.112 C 1291.972 146.362 1291.667 146.464 1291.417 146.339 C 1291.166 146.213 1291.064 145.909 1291.19 145.658 L 1294.265 139.507 L 1294.265 134.759 C 1294.265 133.712 1295.116 132.861 1296.163 132.861 L 1299.64 132.861 C 1300.687 132.861 1301.539 133.712 1301.539 134.759 L 1301.539 139.507 L 1304.614 145.658 C 1304.739 145.909 1304.638 146.213 1304.387 146.339 C 1304.314 146.375 1304.237 146.392 1304.161 146.392 Z " fill="rgb(181,67,36)"/></g></g><g><circle vector-effect="non-scaling-stroke" cx="1123.0601361883669" cy="76.84764952005919" r="29.33587661005822" fill="rgb(39,59,122)"/><path d=" M 1152.396 76.848 C 1152.396 76.459 1152.386 76.072 1152.371 75.687 L 1144.12 67.799 L 1143.68 68.131 L 1136.098 60.55 L 1135.454 62.046 L 1135.094 61.686 L 1110.022 93.145 L 1123.06 106.184 L 1123.06 106.184 C 1139.262 106.184 1152.396 93.049 1152.396 76.848 Z " fill="rgb(18,17,73)"/><rect x="1110.022" y="60.55" width="26.076" height="32.595" transform="matrix(1,0,0,1,0,0)" fill="rgb(255,237,181)"/><rect x="1123.06" y="60.55" width="13.038" height="32.595" transform="matrix(1,0,0,1,0,0)" fill="rgb(254,225,135)"/><path d=" M 1143.63 76.403 L 1138.839 76.403 C 1138.526 76.403 1138.271 76.149 1138.271 75.835 L 1138.271 68.081 C 1138.271 67.768 1138.526 67.514 1138.839 67.514 L 1143.63 67.514 C 1143.944 67.514 1144.198 67.768 1144.198 68.081 L 1144.198 75.835 C 1144.198 76.149 1143.943 76.403 1143.63 76.403 Z " fill="rgb(255,198,27)"/><g><path d=" M 1140.113 71.028 L 1141.235 69.085 L 1142.356 71.028 L 1140.113 71.028 Z " fill="rgb(201,47,0)"/><path d=" M 1142.356 72.888 L 1141.235 74.831 L 1140.113 72.888 L 1142.356 72.888 Z " fill="rgb(201,47,0)"/></g></g><g><circle vector-effect="non-scaling-stroke" cx="1288.5144802690952" cy="640.0964804331772" r="29.33587661005822" fill="rgb(39,59,122)"/><path d=" M 1289.973 669.396 C 1302.342 668.791 1312.696 660.524 1316.395 649.241 L 1302.043 634.89 L 1298.584 635.73 L 1289.913 627.058 L 1287.405 629.879 L 1271.328 645.491 L 1274.719 648.882 L 1271.328 650.751 L 1289.973 669.396 Z " fill="rgb(18,17,73)"/><circle vector-effect="non-scaling-stroke" cx="1288.5144802690954" cy="628.3048331551504" r="1.8749750511476577" fill="rgb(224,145,18)"/><path d=" M 1288.514 626.429 C 1288.47 626.429 1288.427 626.433 1288.383 626.436 L 1288.383 630.173 C 1288.427 630.176 1288.47 630.179 1288.514 630.179 C 1289.55 630.179 1290.389 629.34 1290.389 628.304 C 1290.389 627.269 1289.55 626.429 1288.514 626.429 Z " fill="rgb(255,84,25)"/><path d=" M 1290.233 647.314 L 1290.233 642.731 L 1286.796 642.731 L 1286.796 647.314 L 1271.328 647.314 L 1271.328 650.751 L 1305.701 650.751 L 1305.701 647.314 L 1290.233 647.314 Z " fill="rgb(224,145,18)"/><path d=" M 1305.701 647.314 L 1290.233 647.314 L 1290.233 642.731 L 1288.383 642.731 L 1288.383 650.751 L 1305.701 650.751 L 1305.701 647.314 Z " fill="rgb(255,84,25)"/><path d=" M 1271.328 645.491 C 1271.328 635.999 1279.022 628.304 1288.514 628.304 C 1298.006 628.304 1305.701 635.999 1305.701 645.491 L 1271.328 645.491 Z " fill="rgb(255,198,27)"/><path d=" M 1288.514 628.304 C 1288.47 628.304 1288.427 628.306 1288.383 628.306 L 1288.383 645.491 L 1305.701 645.491 C 1305.701 635.999 1298.006 628.304 1288.514 628.304 Z " fill="rgb(234,162,47)"/></g><g><circle vector-effect="non-scaling-stroke" cx="962.8862498974486" cy="681.75342521946" r="29.33587661005822" fill="rgb(39,59,122)"/><path d=" M 992.156 681.753 C 992.156 680.81 992.11 679.877 992.023 678.956 L 982.175 669.109 L 973.4 681.797 L 972.731 681.128 L 943.597 694.398 L 960.168 710.969 C 961.042 711.047 961.926 711.089 962.82 711.089 C 979.022 711.089 992.156 697.955 992.156 681.753 Z " fill="rgb(18,17,73)"/><path d=" M 981.324 694.792 L 944.448 694.792 C 943.83 694.792 943.329 694.29 943.329 693.672 L 943.329 669.835 C 943.329 669.216 943.83 668.715 944.448 668.715 L 981.324 668.715 C 981.942 668.715 982.443 669.217 982.443 669.835 L 982.443 693.672 C 982.444 694.29 981.942 694.792 981.324 694.792 Z " fill="rgb(255,237,181)"/><path d=" M 981.324 668.715 L 962.82 668.715 L 962.82 694.792 L 981.324 694.792 C 981.942 694.792 982.443 694.29 982.443 693.672 L 982.443 669.835 C 982.444 669.216 981.942 668.715 981.324 668.715 Z " fill="rgb(254,225,135)"/><rect x="945.008" y="670.444" width="35.756" height="19.36" transform="matrix(1,0,0,1,0,0)" fill="rgb(39,59,122)"/><rect x="962.821" y="670.444" width="17.943" height="19.36" transform="matrix(1,0,0,1,0,0)" fill="rgb(18,17,73)"/><path d=" M 955.363 698.051 L 950.852 698.051 C 950.298 698.051 949.848 697.601 949.848 697.047 L 949.848 686.017 C 949.848 685.462 950.298 685.013 950.852 685.013 L 955.363 685.013 C 955.917 685.013 956.367 685.462 956.367 686.017 L 956.367 697.047 C 956.367 697.602 955.918 698.051 955.363 698.051 Z " fill="rgb(255,255,255)"/><g><path d=" M 979.184 691.927 L 969.405 691.927 C 969.187 691.927 969.01 691.75 969.01 691.532 C 969.01 691.314 969.187 691.137 969.405 691.137 L 979.184 691.137 C 979.402 691.137 979.579 691.314 979.579 691.532 C 979.579 691.75 979.402 691.927 979.184 691.927 Z " fill="rgb(255,198,27)"/><path d=" M 966.146 691.927 L 962.886 691.927 C 962.668 691.927 962.491 691.75 962.491 691.532 C 962.491 691.314 962.668 691.137 962.886 691.137 L 966.146 691.137 C 966.364 691.137 966.541 691.314 966.541 691.532 C 966.541 691.75 966.364 691.927 966.146 691.927 Z " fill="rgb(255,198,27)"/><path d=" M 954.737 688.668 L 951.478 688.668 C 951.26 688.668 951.083 688.491 951.083 688.273 C 951.083 688.054 951.26 687.877 951.478 687.877 L 954.737 687.877 C 954.955 687.877 955.133 688.054 955.133 688.273 C 955.133 688.491 954.955 688.668 954.737 688.668 Z " fill="rgb(255,198,27)"/><path d=" M 954.737 691.112 L 951.478 691.112 C 951.26 691.112 951.083 690.935 951.083 690.717 C 951.083 690.499 951.26 690.322 951.478 690.322 L 954.737 690.322 C 954.955 690.322 955.133 690.499 955.133 690.717 C 955.133 690.935 954.955 691.112 954.737 691.112 Z " fill="rgb(255,198,27)"/></g></g><rect x="737" y="326.203" width="126.731" height="305.093" transform="matrix(1,0,0,1,0,0)" fill="rgb(255,255,255)"/><rect x="925.923" y="809.658" width="57.498" height="61.019" transform="matrix(1,0,0,1,0,0)" fill="rgb(255,255,255)"/><rect x="918.882" y="326.203" width="193.617" height="154.893" transform="matrix(1,0,0,1,0,0)" fill="rgb(255,255,255)"/><rect x="918.882" y="478.749" width="31.683" height="68.059" transform="matrix(1,0,0,1,0,0)" fill="rgb(255,255,255)"/><rect x="1239.23" y="234.675" width="96.222" height="235.86" transform="matrix(1,0,0,1,0,0)" fill="rgb(255,255,255)"/></g><g clip-path="url(#_clipPath_dEGRN5bioXP7UVXBwrE1KDtDdPgAKxcl)"><text transform="matrix(1.173,0,0,1.173,257,163.452)" style="font-family:'Montserrat';font-weight:700;font-size:48px;font-style:normal;fill:#000000;stroke:none;">- Lounge</text></g><defs><clipPath id="_clipPath_dEGRN5bioXP7UVXBwrE1KDtDdPgAKxcl"><rect x="0" y="0" width="281.226" height="60" transform="matrix(1.173,0,0,1.173,257,108.929)"/></clipPath></defs><g clip-path="url(#_clipPath_AycHtBCOzhEQgQGJddO6AVubBsew7weI)"><text transform="matrix(1.173,0,0,1.173,257,358.855)" style="font-family:'Montserrat';font-weight:700;font-size:48px;font-style:normal;fill:#000000;stroke:none;">- Front Desk</text></g><defs><clipPath id="_clipPath_AycHtBCOzhEQgQGJddO6AVubBsew7weI"><rect x="0" y="0" width="313.609" height="60" transform="matrix(1.173,0,0,1.173,257,304.333)"/></clipPath></defs><g><circle vector-effect="non-scaling-stroke" cx="175.6586266305679" cy="538.8674168877211" r="53.02412010829434" fill="rgb(39,59,122)"/><path d=" M 228.683 538.867 C 228.683 537.16 228.599 535.472 228.441 533.805 L 207.08 512.445 L 186.779 546.893 L 193.079 553.193 L 144.237 567.433 L 168.167 591.362 C 170.615 591.708 173.115 591.892 175.659 591.892 C 204.943 591.892 228.683 568.152 228.683 538.867 Z " fill="rgb(18,17,73)"/><rect x="144.237" y="512.445" width="36.66" height="54.988" transform="matrix(1,0,0,1,0,0)" fill="rgb(255,237,181)"/><rect x="175.659" y="512.445" width="31.422" height="54.988" transform="matrix(1,0,0,1,0,0)" fill="rgb(254,225,135)"/><g><path d=" M 159.948 526.386 C 156.592 526.386 153.862 523.656 153.862 520.3 C 153.862 516.944 156.592 514.214 159.948 514.214 C 163.304 514.214 166.034 516.944 166.034 520.3 C 166.034 523.656 163.304 526.386 159.948 526.386 Z  M 159.948 515.912 C 157.528 515.912 155.56 517.881 155.56 520.3 C 155.56 522.72 157.528 524.688 159.948 524.688 C 162.367 524.688 164.336 522.72 164.336 520.3 C 164.336 517.881 162.367 515.912 159.948 515.912 Z " fill="rgb(181,67,36)"/><path d=" M 191.37 526.386 C 188.013 526.386 185.283 523.656 185.283 520.3 C 185.283 516.944 188.013 514.214 191.37 514.214 C 194.726 514.214 197.456 516.944 197.456 520.3 C 197.456 523.656 194.726 526.386 191.37 526.386 Z  M 191.37 515.912 C 188.95 515.912 186.982 517.881 186.982 520.3 C 186.982 522.72 188.95 524.688 191.37 524.688 C 193.789 524.688 195.757 522.72 195.757 520.3 C 195.757 517.881 193.789 515.912 191.37 515.912 Z " fill="rgb(181,67,36)"/><path d=" M 170.421 545.033 C 169.952 545.033 169.572 544.653 169.572 544.184 L 169.572 532.096 C 169.572 530.567 168.328 529.322 166.798 529.322 L 153.097 529.322 C 151.568 529.322 150.323 530.567 150.323 532.096 L 150.323 544.184 C 150.323 544.653 149.943 545.033 149.474 545.033 C 149.005 545.033 148.625 544.653 148.625 544.184 L 148.625 532.096 C 148.625 529.63 150.631 527.624 153.098 527.624 L 166.798 527.624 C 169.265 527.624 171.271 529.63 171.271 532.096 L 171.271 544.184 C 171.271 544.653 170.891 545.033 170.421 545.033 Z " fill="rgb(181,67,36)"/><path d=" M 165.185 563.045 C 164.716 563.045 164.336 562.664 164.336 562.196 L 164.336 536.011 C 164.336 535.542 164.716 535.162 165.185 535.162 C 165.654 535.162 166.034 535.542 166.034 536.011 L 166.034 562.196 C 166.034 562.665 165.654 563.045 165.185 563.045 Z " fill="rgb(181,67,36)"/><path d=" M 154.711 563.045 C 154.242 563.045 153.862 562.664 153.862 562.196 L 153.862 536.011 C 153.862 535.542 154.242 535.162 154.711 535.162 C 155.18 535.162 155.56 535.542 155.56 536.011 L 155.56 562.196 C 155.56 562.665 155.18 563.045 154.711 563.045 Z " fill="rgb(181,67,36)"/><path d=" M 194.702 563.045 C 194.233 563.045 193.853 562.664 193.853 562.196 L 193.853 546.485 C 193.853 546.016 194.233 545.636 194.702 545.636 C 195.171 545.636 195.551 546.016 195.551 546.485 L 195.551 562.196 C 195.551 562.665 195.171 563.045 194.702 563.045 Z " fill="rgb(181,67,36)"/><path d=" M 188.037 563.045 C 187.568 563.045 187.188 562.664 187.188 562.196 L 187.188 546.485 C 187.188 546.016 187.568 545.636 188.037 545.636 C 188.506 545.636 188.886 546.016 188.886 546.485 L 188.886 562.196 C 188.886 562.665 188.506 563.045 188.037 563.045 Z " fill="rgb(181,67,36)"/><path d=" M 201.844 550.191 C 201.533 550.191 201.233 550.018 201.084 549.721 L 195.847 539.247 C 195.789 539.129 195.757 538.999 195.757 538.867 L 195.757 530.721 C 195.757 529.905 195.094 529.242 194.279 529.242 L 188.46 529.242 C 187.645 529.242 186.981 529.905 186.981 530.721 L 186.981 538.867 C 186.981 538.999 186.951 539.129 186.892 539.247 L 181.655 549.721 C 181.445 550.141 180.935 550.31 180.516 550.101 C 180.096 549.891 179.926 549.381 180.136 548.961 L 185.283 538.667 L 185.283 530.721 C 185.283 528.97 186.708 527.544 188.46 527.544 L 194.279 527.544 C 196.03 527.544 197.456 528.969 197.456 530.721 L 197.456 538.667 L 202.603 548.961 C 202.812 549.381 202.642 549.891 202.223 550.101 C 202.101 550.162 201.972 550.191 201.844 550.191 Z " fill="rgb(181,67,36)"/></g></g><g><circle vector-effect="non-scaling-stroke" cx="176.96786416410666" cy="738.1988313689019" r="49.09640750768" fill="rgb(39,59,122)"/><path d=" M 226.064 738.199 C 226.064 737.548 226.048 736.901 226.023 736.256 L 212.213 723.054 L 211.477 723.611 L 198.789 710.923 L 197.711 713.427 L 197.108 712.824 L 155.147 765.475 L 176.968 787.295 L 176.968 787.295 C 204.083 787.295 226.064 765.314 226.064 738.199 Z " fill="rgb(18,17,73)"/><rect x="155.147" y="710.923" width="43.641" height="54.551" transform="matrix(1,0,0,1,0,0)" fill="rgb(255,237,181)"/><rect x="176.968" y="710.923" width="21.821" height="54.551" transform="matrix(1,0,0,1,0,0)" fill="rgb(254,225,135)"/><path d=" M 211.393 737.455 L 203.376 737.455 C 202.851 737.455 202.425 737.029 202.425 736.504 L 202.425 723.528 C 202.425 723.003 202.851 722.577 203.376 722.577 L 211.393 722.577 C 211.918 722.577 212.344 723.003 212.344 723.528 L 212.344 736.504 C 212.344 737.03 211.918 737.455 211.393 737.455 Z " fill="rgb(255,198,27)"/><g><path d=" M 205.507 728.46 L 207.384 725.208 L 209.262 728.46 L 205.507 728.46 Z " fill="rgb(201,47,0)"/><path d=" M 209.262 731.573 L 207.384 734.824 L 205.507 731.573 L 209.262 731.573 Z " fill="rgb(201,47,0)"/></g></g><g><circle vector-effect="non-scaling-stroke" cx="178.27710169764507" cy="339.5360024065409" r="49.096407507679885" fill="rgb(39,59,122)"/><path d=" M 180.718 388.572 C 201.419 387.558 218.747 373.724 224.937 354.841 L 200.918 330.822 L 195.13 332.228 L 180.617 317.715 L 176.421 322.437 L 149.514 348.564 L 155.189 354.24 L 149.514 357.367 L 180.718 388.572 Z " fill="rgb(18,17,73)"/><circle vector-effect="non-scaling-stroke" cx="178.2771016976454" cy="319.8015479825563" r="3.137950857971333" fill="rgb(224,145,18)"/><path d=" M 178.277 316.663 C 178.203 316.663 178.13 316.669 178.057 316.674 L 178.057 322.928 C 178.13 322.933 178.203 322.939 178.277 322.939 C 180.01 322.939 181.415 321.534 181.415 319.801 C 181.415 318.067 180.01 316.663 178.277 316.663 Z " fill="rgb(255,84,25)"/><path d=" M 181.153 351.615 L 181.153 343.945 L 175.401 343.945 L 175.401 351.615 L 149.514 351.615 L 149.514 357.367 L 207.041 357.367 L 207.041 351.615 L 181.153 351.615 Z " fill="rgb(224,145,18)"/><path d=" M 207.041 351.615 L 181.153 351.615 L 181.153 343.945 L 178.057 343.945 L 178.057 357.367 L 207.041 357.367 L 207.041 351.615 Z " fill="rgb(255,84,25)"/><path d=" M 149.514 348.564 C 149.514 332.678 162.391 319.801 178.277 319.801 C 194.163 319.801 207.041 332.678 207.041 348.564 L 149.514 348.564 Z " fill="rgb(255,198,27)"/><path d=" M 178.277 319.801 C 178.203 319.801 178.13 319.803 178.057 319.803 L 178.057 348.564 L 207.041 348.564 C 207.041 332.678 194.163 319.801 178.277 319.801 Z " fill="rgb(234,162,47)"/></g><g><circle vector-effect="non-scaling-stroke" cx="179.5863392311833" cy="144.13230052597518" r="49.096407507679885" fill="rgb(39,59,122)"/><path d=" M 228.573 144.132 C 228.573 142.553 228.495 140.992 228.349 139.451 L 211.868 122.97 L 197.181 144.205 L 196.062 143.085 L 147.304 165.294 L 175.037 193.027 C 176.499 193.158 177.979 193.229 179.476 193.229 C 206.591 193.229 228.573 171.247 228.573 144.132 Z " fill="rgb(18,17,73)"/><path d=" M 210.444 165.953 L 148.729 165.953 C 147.694 165.953 146.855 165.114 146.855 164.079 L 146.855 124.185 C 146.855 123.15 147.694 122.312 148.729 122.312 L 210.444 122.312 C 211.478 122.312 212.317 123.151 212.317 124.185 L 212.317 164.08 C 212.317 165.114 211.478 165.953 210.444 165.953 Z " fill="rgb(255,237,181)"/><path d=" M 210.444 122.312 L 179.476 122.312 L 179.476 165.953 L 210.444 165.953 C 211.478 165.953 212.317 165.114 212.317 164.079 L 212.317 124.185 C 212.317 123.15 211.478 122.312 210.444 122.312 Z " fill="rgb(254,225,135)"/><rect x="149.666" y="125.204" width="59.841" height="32.4" transform="matrix(1,0,0,1,0,0)" fill="rgb(39,59,122)"/><rect x="179.477" y="125.204" width="30.03" height="32.4" transform="matrix(1,0,0,1,0,0)" fill="rgb(18,17,73)"/><path d=" M 166.995 171.408 L 159.446 171.408 C 158.518 171.408 157.765 170.655 157.765 169.727 L 157.765 151.268 C 157.765 150.34 158.518 149.587 159.446 149.587 L 166.995 149.587 C 167.923 149.587 168.676 150.34 168.676 151.268 L 168.676 169.727 C 168.676 170.656 167.924 171.408 166.995 171.408 Z " fill="rgb(255,255,255)"/><g><path d=" M 206.862 161.159 L 190.497 161.159 C 190.132 161.159 189.835 160.863 189.835 160.498 C 189.835 160.133 190.132 159.836 190.497 159.836 L 206.862 159.836 C 207.227 159.836 207.523 160.133 207.523 160.498 C 207.523 160.863 207.227 161.159 206.862 161.159 Z " fill="rgb(255,198,27)"/><path d=" M 185.041 161.159 L 179.586 161.159 C 179.221 161.159 178.925 160.863 178.925 160.498 C 178.925 160.133 179.221 159.836 179.586 159.836 L 185.041 159.836 C 185.406 159.836 185.703 160.133 185.703 160.498 C 185.703 160.863 185.407 161.159 185.041 161.159 Z " fill="rgb(255,198,27)"/><path d=" M 165.948 155.704 L 160.493 155.704 C 160.128 155.704 159.832 155.408 159.832 155.043 C 159.832 154.678 160.128 154.381 160.493 154.381 L 165.948 154.381 C 166.313 154.381 166.61 154.678 166.61 155.043 C 166.61 155.408 166.313 155.704 165.948 155.704 Z " fill="rgb(255,198,27)"/><path d=" M 165.948 159.795 L 160.493 159.795 C 160.128 159.795 159.832 159.499 159.832 159.134 C 159.832 158.769 160.128 158.473 160.493 158.473 L 165.948 158.473 C 166.313 158.473 166.61 158.769 166.61 159.134 C 166.61 159.499 166.313 159.795 165.948 159.795 Z " fill="rgb(255,198,27)"/></g></g><g clip-path="url(#_clipPath_YElrxdumclOSOurFCeFQt6c8DgU2092x)"><text transform="matrix(1.173,0,0,1.173,257,558.187)" style="font-family:'Montserrat';font-weight:700;font-size:48px;font-style:normal;fill:#000000;stroke:none;">- Restroom</text></g><defs><clipPath id="_clipPath_YElrxdumclOSOurFCeFQt6c8DgU2092x"><rect x="0" y="0" width="281.226" height="60" transform="matrix(1.173,0,0,1.173,257,503.664)"/></clipPath></defs><g clip-path="url(#_clipPath_sJvkV6C4lbcK6zAJBiL5sRZRNDo2N4yp)"><text transform="matrix(1.173,0,0,1.173,257,757.518)" style="font-family:'Montserrat';font-weight:700;font-size:48px;font-style:normal;fill:#000000;stroke:none;">- Elevator</text></g><defs><clipPath id="_clipPath_sJvkV6C4lbcK6zAJBiL5sRZRNDo2N4yp"><rect x="0" y="0" width="281.226" height="60" transform="matrix(1.173,0,0,1.173,257,702.996)"/></clipPath></defs></g></svg>